<svg xmlns="http://www.w3.org/2000/svg" width="256" height="256"><path fill="#1976D2" fill-opacity=".016" fill-rule="evenodd" d="M0 128.004v128.004l128.25-.254 128.25-.254.254-127.75L257.008 0H0zm.485.496c0 70.4.119 99.053.265 63.672s.146-92.98 0-128S.485 58.1.485 128.5"/><path fill="#1976D2" fill-opacity=".227" fill-rule="evenodd" d="M100.831.955c-18.057 3.31-36.932 13.489-47.944 25.857-26.05 29.256-29.247 71.696-7.801 103.586 6.507 9.676 20.418 22.889 32.081 30.472 9.337 6.07 9.749 6.231 12.08 4.704 3.139-2.057 4.33-.862 1.46 1.464-1.214.984-1.982 1.975-1.707 2.202 2.55 2.102 21.322 13.76 22.158 13.76.599 0 6.996-4.225 14.215-9.389 7.22-5.164 15.957-10.518 19.416-11.899s5.823-1.949 5.252-1.262c-.782.943 1.599 2.941 9.711 8.15 5.912 3.795 11.255 6.9 11.875 6.9 1.213 0 32.294-21.668 32.275-22.5-.011-.481-19.305-13.132-21.127-13.853-.49-.194-3.453 1.335-6.583 3.397l-5.692 3.75 5-5.539c2.75-3.047 5.33-5.588 5.734-5.647 1.101-.162 31.231-22.064 31.492-22.892.124-.394-3.317-3.05-7.647-5.903l-7.873-5.187.536-12.424c.61-14.119-.516-22.072-4.808-33.963-8.911-24.683-30.305-44.425-56.113-51.779-8.206-2.338-28.119-3.447-35.99-2.005m98.265 125.225-16.404 11.056 11.385 7.401c6.261 4.07 11.882 7.209 12.49 6.976 1.717-.659 30.902-21.65 31.179-22.426.266-.744-20.248-14.227-21.491-14.125-.415.034-8.137 5.037-17.159 11.118M129.5 174.126c-8.8 6.027-16 11.149-16 11.382 0 .658 21.498 14.492 22.52 14.492 1.221 0 31.995-22.027 31.925-22.851-.066-.787-19.86-13.58-21.374-13.815-.589-.092-8.271 4.765-17.071 10.792m-110 38.749c-7.346 1.905-11.49 6.762-11.496 13.475-.007 7.018 8.626 12.65 19.39 12.65 1.263 0 3.123.914 4.134 2.031 1.731 1.912 1.739 2.131.137 3.733-1.08 1.08-3.154 1.663-5.676 1.597-4.422-.116-6.989-1.714-6.989-4.351 0-1.307-1.319-2.006-5.249-2.783-2.887-.571-5.587-.829-6-.573-1.566.968-.66 7.186 1.522 10.448 3.049 4.557 10.063 7.071 18.272 6.547 10.699-.683 16.444-5.737 16.451-14.476.007-7.409-4.168-10.298-18.496-12.8-4.434-.774-5-1.156-5-3.373 0-2.228.465-2.534 4.263-2.808 3.853-.279 4.431-.014 6 2.751.999 1.759 2.303 2.847 3.069 2.559.732-.276 3.095-.502 5.25-.502 3.398 0 3.918-.299 3.914-2.25-.005-3.292-3.466-8.425-6.866-10.183-3.581-1.852-12.512-2.761-16.63-1.692m198.991.99c-4.903 2.228-9.86 7.695-11.51 12.694-.738 2.234-1.023 6.327-.712 10.205.947 11.8 9.034 19.236 20.92 19.236 9.756 0 15.958-3.564 19.37-11.131 1.444-3.202 1.551-4.183.524-4.818-2.091-1.292-11.547-2.125-11.912-1.048-1.843 5.44-9.33 7.282-13.332 3.28-3.104-3.103-3.569-10.798-.909-15.033 1.728-2.753 2.631-3.25 5.9-3.25 4.155 0 6.333 1.668 8.039 6.156l1.008 2.652 6.062-1.527c3.333-.84 6.051-2.034 6.039-2.654-.044-2.263-3.777-9.185-6.11-11.329-5.774-5.309-15.956-6.804-23.377-3.433M85 233.95V255h12.041l-.271-20.75-.27-20.75-5.75-.3-5.75-.3zm85 .05v21h33.105l-.303-5.096-.302-5.097-9.75.022-9.75.021V239h16.105l-.303-5.25-.302-5.25h-7.752c-7.372 0-7.751-.11-7.75-2.25.002-2.175.317-2.25 9.502-2.25h9.5v-11h-32zm-112.648-8.908c-4.601 1.333-9.082 6.928-9.896 12.354-.549 3.662-.227 5.443 1.682 9.292 6.034 12.166 23.69 12.166 29.724 0 6.759-13.628-5.746-26.212-21.51-21.646m52.106.788c-3.68 1.672-7.458 5.698-7.458 7.949 0 .494 2.1 1.187 4.667 1.539 3.527.483 5.093.254 6.412-.939.981-.888 2.986-1.437 4.583-1.254 2.292.262 2.901.881 3.168 3.213.285 2.494.08 2.769-1.5 2.018-1.007-.478-4.23-.877-7.162-.887-4.77-.017-5.64.325-8.25 3.247-3.581 4.007-3.695 7.157-.401 11.072 3.462 4.114 9.125 5.043 14.508 2.38 3.085-1.527 3.975-1.659 3.975-.593 0 .983 1.425 1.375 5 1.375h5l-.015-11.25c-.009-6.966-.49-12.202-1.264-13.75-2.808-5.62-13.43-7.678-21.263-4.12m44.042-.672c-1.1.631-2.548 1.854-3.218 2.719-1.064 1.373-1.222 1.287-1.25-.677-.029-2.057-.504-2.25-5.532-2.25H138v30h12v-9.8c0-9.738.752-12.2 3.725-12.2.729 0 1.587 1.309 1.907 2.908.523 2.616 1.029 2.943 5.045 3.263 2.455.195 4.657.161 4.894-.075.657-.657.51-8.721-.192-10.551-.728-1.896-5.492-4.558-8.079-4.515-.99.017-2.7.547-3.8 1.178m-93.465 9.726C59.466 235.998 59 238.278 59 240c0 4.729 1.622 7 5 7s5-2.271 5-7-1.622-7-5-7c-1.873 0-3.303.698-3.965 1.934m54.715 8.829c-2.172.476-2.31 4.085-.186 4.9 1.743.669 6.436-1.14 6.436-2.481 0-1.245-4.197-2.869-6.25-2.419"/><path fill="#1976D2" fill-opacity=".118" fill-rule="evenodd" d="M111.666 1.086c-1.009.609-3.534.946-5.61.748-2.223-.212-4.269.168-4.976.925-.66.707-1.51 1.093-1.89.858s-.571 27.453-.425 61.528c.197 46.046.558 61.774 1.405 61.25.706-.436.864-.259.415.467-.398.644-1.133.917-1.633.608-1.202-.742-5.152 1.398-4.507 2.441.276.447-6.236 5.4-14.472 11.008C71.738 146.527 65 151.461 65 151.882s4.949 3.974 10.998 7.894l10.999 7.129 7.751-5.133c4.264-2.824 7.905-5.022 8.093-4.886s.906-.526 1.597-1.471c.991-1.354 1.428-1.441 2.064-.412.505.817.414 1.063-.243.657-.577-.357-1.318.052-1.647.909s-1.054 1.276-1.612.931-1.281.068-1.606.916-2.01 2.454-3.743 3.568-4.449 3.099-6.035 4.414l-2.884 2.391 10.364 6.725c5.7 3.699 10.868 6.919 11.485 7.155s7.375-4.042 15.02-9.508c7.644-5.467 15.024-10.272 16.399-10.68s4.75-1.841 7.5-3.186l5-2.446-2.772 2.326-2.772 2.325 11.417 7.275 11.416 7.274 15.356-11.052c8.445-6.078 15.48-11.413 15.632-11.855s-4.445-3.832-10.217-7.533l-10.493-6.729-5.784 3.886c-9.054 6.083-9.123 6.027-1.628-1.329 3.887-3.816 14.092-11.887 22.677-17.937s15.6-11.225 15.589-11.5-3.847-2.922-8.526-5.882c-5.706-3.609-8.33-5.844-7.969-6.786.296-.772.823-5.55 1.17-10.618C199.48 61.2 185.879 32.391 163.5 16.497c-11.928-8.471-26.73-14.296-38-14.953-3.3-.192-7.35-.623-9-.958s-3.826-.109-4.834.5m88.13 124.73c-8.637 5.876-15.724 10.973-15.75 11.325-.025.353 4.898 3.865 10.94 7.805l10.985 7.163 16.106-11.511 16.106-11.511-10.687-7.044c-5.878-3.873-10.981-7.013-11.341-6.977s-7.722 4.874-16.359 10.75m-103.837 3.21c-1.116.689-.993.856.554.753 1.093-.074 5.25 1.968 9.237 4.537 8.604 5.543 9.748 5.446 1.5-.127-8.143-5.502-9.637-6.186-11.291-5.163m15.594 20.889a1.116 1.116 0 0 0 .362 1.532c.521.322 1.21.159 1.532-.362a1.116 1.116 0 0 0-.362-1.532 1.116 1.116 0 0 0-1.532.362m-3 2a1.116 1.116 0 0 0 .362 1.532c.521.322 1.21.159 1.532-.362a1.116 1.116 0 0 0-.362-1.532 1.116 1.116 0 0 0-1.532.362m21.612 22.156c-8.911 6.084-15.963 11.446-15.673 11.917.291.47 5.232 3.853 10.979 7.517 6.618 4.219 10.923 6.374 11.74 5.878 1.631-.991 25.534-18.098 28.509-20.403 2.376-1.841 2.354-1.861-16.787-14.302-2.553-1.659-2.654-1.608-18.768 9.393m89.845 39.185c-5.215 1.75-11.385 8.441-12.956 14.05-1.74 6.215-.8 13.745 2.397 19.2 5.8 9.898 21.387 12.52 31.713 5.334 2.502-1.741 7.574-10.435 6.636-11.374-.237-.236-2.876-.787-5.865-1.225-5.277-.773-5.526-.701-8.553 2.481-3.984 4.188-7.517 4.297-11.459.355-2.474-2.475-2.923-3.714-2.923-8.077s.449-5.602 2.923-8.077c1.608-1.608 3.612-2.923 4.453-2.923 3.145 0 6.578 2.383 8.123 5.639.877 1.848 1.824 3.361 2.105 3.361 1.39 0 9.989-2.353 10.615-2.905 1.593-1.402-4.087-10.979-8.077-13.619-4.655-3.081-13.505-4.108-19.132-2.22m-49.564 1.023c-.27.704-.368 10.042-.218 20.75l.272 19.471 16.25.275 16.25.275V245h-20v-6h16v-10h-16v-6h19v-10h-15.531c-11.694 0-15.653.316-16.023 1.279"/><path fill="#1976D2" fill-opacity=".626" fill-rule="evenodd" d="m151.285 93.246-16.214 11.126 10.945 7.314c6.02 4.023 11.178 7.314 11.464 7.314.847 0 31.521-22.331 31.51-22.941-.008-.481-19.414-13.223-20.939-13.749-.303-.104-7.848 4.817-16.766 10.936m23.814 15.839c-8.961 6.116-15.912 11.477-15.446 11.912s5.456 3.754 11.089 7.376l10.243 6.586 15.507-11.081c8.53-6.094 15.497-11.372 15.484-11.729-.018-.509-17.676-12.778-20.029-13.917-.305-.147-7.886 4.737-16.848 10.853M116.5 117.09c-8.8 5.99-16 11.127-16 11.414 0 1.285 21.768 14.449 22.827 13.805 1.704-1.038 29.01-20.48 30.062-21.405.681-.599-11.579-9.306-19.889-14.126-.55-.319-8.2 4.321-17 10.312m83.57 9.137-16.309 11.045 10.596 6.864c5.827 3.775 11.076 6.864 11.663 6.864 1.161 0 30.334-20.738 30.711-21.831.216-.628-2.982-2.877-15.256-10.728l-5.095-3.259zm-58.863 6.577c-8.888 5.883-16.17 10.972-16.183 11.309-.013.338 4.903 3.871 10.925 7.853l10.949 7.24 15.592-11.23c8.575-6.177 15.461-11.587 15.301-12.023-.227-.618-13.429-9.621-19.358-13.201-.587-.354-8.339 4.169-17.226 10.052m-60.411 8.012c-8.637 5.876-15.712 10.909-15.722 11.184-.021.596 19.865 13.372 21.464 13.789 1.155.302 30.745-20.236 31.25-21.689.278-.8-19.406-14.168-20.666-14.034-.342.036-7.689 4.874-16.326 10.75m87.068 7.848c-7.9 5.211-15.164 10.255-16.142 11.211-1.696 1.656-1.277 2.061 9.093 8.782l10.871 7.046 15.635-11.101c8.6-6.106 15.617-11.327 15.594-11.602s-4.687-3.495-10.364-7.155l-10.323-6.654zm-55.893 4.115a12212 12212 0 0 0-16.192 11.232l-6.72 4.675 11.067 7.173 11.068 7.173 15.153-10.687c8.334-5.878 15.506-10.986 15.938-11.352.734-.62-3.067-3.4-15.655-11.453l-5.188-3.319zm18.225 21.646c-8.418 5.728-15.228 10.789-15.134 11.245.093.457 4.847 3.853 10.563 7.548l10.392 6.717 15.492-11.068c8.52-6.088 15.491-11.242 15.491-11.453 0-.685-19.453-13.414-20.492-13.409-.555.002-7.895 4.691-16.312 10.42M225 212.717c-9.142 1.441-16.052 7.635-17.845 15.998-3.65 17.017 9.006 30.029 25.596 26.316 6.338-1.418 11.418-5.554 13.693-11.148l1.472-3.618-5.54-.651c-5.251-.617-5.686-.494-8.359 2.368-5.141 5.504-13.012 3.465-14.99-3.883-3.568-13.249 10.856-21.452 15.978-9.087.751 1.813 1.813 2.888 2.567 2.599.707-.272 2.898-.796 4.868-1.166s3.834-1.08 4.142-1.578c2.027-3.279-6.554-14.197-12.057-15.342-4.874-1.014-7.047-1.198-9.525-.808M171 234v21h31v-10h-20v-6h16v-10h-16v-6h20v-10h-31z"/></svg>